<svg width="28" height="28" viewBox="0 0 28 28" fill="none" xmlns="http://www.w3.org/2000/svg">
<path d="M18.6664 9.51111C18.6664 10.8077 18.1853 12.0512 17.329 12.9681C16.4726 13.8849 15.3112 14.4 14.1001 14.4C12.889 14.4 11.7276 13.8849 10.8712 12.9681C10.0149 12.0512 9.5338 10.8077 9.5338 9.51111M4.5488 8.77947L3.7497 19.0461C3.57803 21.2517 3.4922 22.3544 3.84042 23.2051C4.14636 23.9525 4.67644 24.5693 5.34672 24.9578C6.10962 25.4 7.14319 25.4 9.21033 25.4H18.9899C21.057 25.4 22.0906 25.4 22.8535 24.9578C23.5238 24.5693 24.0538 23.9525 24.3598 23.2051C24.708 22.3544 24.6222 21.2517 24.4505 19.0461L23.6514 8.77947C23.5037 6.88181 23.4298 5.93298 23.0373 5.21483C22.6917 4.58243 22.177 4.0754 21.5597 3.75915C20.8587 3.4 19.9694 3.4 18.1908 3.4L10.0094 3.4C8.23084 3.4 7.34154 3.4 6.6405 3.75914C6.02317 4.0754 5.5085 4.58243 5.16286 5.21482C4.77036 5.93297 4.6965 6.88181 4.5488 8.77947Z" stroke="#12708D" stroke-width="2.4" stroke-linecap="round" stroke-linejoin="round"/>
</svg>
