<svg width="36" height="36" viewBox="0 0 36 36" fill="none" xmlns="http://www.w3.org/2000/svg">
<circle cx="18" cy="18" r="18" fill="#111111" fill-opacity="0.4"/>
<path d="M18.5 26C18.3356 26 18.1964 25.9414 18.0826 25.8242L12.1629 19.9453C12.0997 19.8932 12.0127 19.8086 11.9021 19.6914C11.7914 19.5742 11.6159 19.361 11.3756 19.0518C11.1352 18.7425 10.9202 18.4251 10.7305 18.0996C10.5407 17.7741 10.3716 17.3802 10.2229 16.918C10.0743 16.4557 10 16.0065 10 15.5703C10 14.138 10.4016 13.0182 11.2048 12.2109C12.008 11.4036 13.1179 11 14.5346 11C14.9267 11 15.3267 11.07 15.7347 11.21C16.1426 11.3499 16.522 11.5387 16.873 11.7764C17.2241 12.014 17.526 12.237 17.779 12.4453C18.032 12.6536 18.2723 12.875 18.5 13.1094C18.7277 12.875 18.968 12.6536 19.221 12.4453C19.474 12.237 19.7759 12.014 20.127 11.7764C20.478 11.5387 20.8574 11.3499 21.2653 11.21C21.6733 11.07 22.0733 11 22.4654 11C23.8821 11 24.992 11.4036 25.7952 12.2109C26.5984 13.0182 27 14.138 27 15.5703C27 17.0091 26.2759 18.474 24.8276 19.9648L18.9174 25.8242C18.8036 25.9414 18.6644 26 18.5 26Z" fill="white"/>
</svg>
