<svg width="28" height="28" viewBox="0 0 28 28" fill="none" xmlns="http://www.w3.org/2000/svg">
<path d="M22.4235 15.3031L13.6003 24.0729L4.75482 15.2658C4.72844 15.2395 4.70085 15.2145 4.67215 15.1908C4.63513 15.1602 4.54367 15.075 4.38261 14.904C4.25715 14.7708 4.0201 14.4853 3.65232 14.0109C3.31605 13.577 3.01716 13.1344 2.75471 12.6829C2.51844 12.2765 2.29176 11.7564 2.08373 11.1078C1.89017 10.5042 1.8001 9.93909 1.8001 9.40781C1.8001 7.44188 2.34341 6.06043 3.2945 5.10205C4.24568 4.14357 5.60639 3.6 7.53537 3.6C7.9896 3.6 8.46958 3.68095 8.98038 3.85667C9.5056 4.03736 9.99038 4.27958 10.4379 4.58333C10.9521 4.93235 11.3824 5.2517 11.7334 5.5415C12.0862 5.83275 12.4211 6.14202 12.7383 6.46942C12.9643 6.7027 13.2753 6.83438 13.6001 6.83438C13.9249 6.83438 14.2359 6.7027 14.4619 6.46942C14.7791 6.14202 15.114 5.83275 15.4668 5.5415C15.8178 5.2517 16.2481 4.93235 16.7623 4.58333C17.2098 4.27958 17.6946 4.03736 18.2198 3.85667C18.7306 3.68095 19.2106 3.6 19.6648 3.6C21.5938 3.6 22.9545 4.14357 23.9057 5.10205C24.8568 6.06043 25.4001 7.44188 25.4001 9.40781C25.4001 11.1851 24.512 13.1451 22.4235 15.3031Z" stroke="#12708D" stroke-width="2.4" stroke-linejoin="round"/>
</svg>
