<svg width="36" height="36" viewBox="0 0 36 36" fill="none" xmlns="http://www.w3.org/2000/svg">
<circle cx="18" cy="18" r="18" fill="#111111" fill-opacity="0.4"/>
<path d="M18.5002 24.8444L12.7226 19.2283C12.7004 19.2067 12.6773 19.1862 12.6532 19.1668C12.6387 19.155 12.5848 19.107 12.4787 18.997C12.4027 18.9183 12.25 18.7394 12.0043 18.4299C11.7854 18.1542 11.5913 17.8735 11.4213 17.588C11.2738 17.3403 11.1287 17.017 10.9936 16.6059C10.8711 16.2329 10.8158 15.889 10.8158 15.5703C10.8158 14.3366 11.1629 13.4994 11.748 12.9238C12.3364 12.3449 13.1927 12 14.4487 12C14.731 12 15.0322 12.0491 15.3563 12.1579C15.6923 12.2708 16.0011 12.4215 16.2854 12.61C16.6252 12.8351 16.9074 13.0398 17.1358 13.2239C17.3657 13.4092 17.5838 13.6058 17.7902 13.8138C17.978 14.003 18.2335 14.1094 18.5 14.1094C18.7665 14.1094 19.022 14.003 19.2098 13.8138C19.4162 13.6058 19.6343 13.4092 19.8642 13.2239C20.0926 13.0398 20.3748 12.8351 20.7146 12.61C20.9989 12.4215 21.3077 12.2708 21.6437 12.1579C21.9678 12.0491 22.269 12 22.5513 12C23.8073 12 24.6636 12.3449 25.252 12.9238C25.8371 13.4994 26.1842 14.3366 26.1842 15.5703C26.1842 16.6431 25.6357 17.867 24.2614 19.2539L18.5002 24.8444Z" stroke="white" stroke-width="2" stroke-linejoin="round"/>
</svg>
