<svg width="27" height="27" viewBox="0 0 27 27" fill="none" xmlns="http://www.w3.org/2000/svg">
<path d="M14.051 22.5403L6.31972 15.025C6.29003 14.9962 6.25902 14.9687 6.22679 14.9427C6.20735 14.9271 6.13522 14.8627 5.9933 14.7156C5.8916 14.6102 5.68726 14.3708 5.35851 13.9568C5.06556 13.5878 4.80588 13.2122 4.57833 12.8301C4.38095 12.4986 4.18677 12.0661 4.00603 11.5159C3.84206 11.0168 3.76808 10.5567 3.76808 10.1302C3.76808 8.47932 4.23253 7.35903 5.01552 6.58874C5.80289 5.81415 6.94871 5.35255 8.62941 5.35255C9.00723 5.35255 9.41033 5.41822 9.84402 5.56388C10.2936 5.71486 10.7068 5.91665 11.0873 6.16878C11.542 6.4701 11.9196 6.7439 12.2252 6.99028C12.5328 7.23822 12.8247 7.50133 13.1009 7.7797C13.3522 8.03284 13.6941 8.17522 14.0507 8.17522C14.4074 8.17522 14.7493 8.03284 15.0005 7.7797C15.2768 7.50133 15.5686 7.23822 15.8762 6.99028C16.1818 6.7439 16.5594 6.4701 17.0142 6.16878C17.3947 5.91665 17.8079 5.71486 18.2574 5.56388C18.6911 5.41822 19.0942 5.35255 19.472 5.35255C21.1527 5.35255 22.2985 5.81415 23.0859 6.58874C23.8689 7.35903 24.3333 8.47932 24.3333 10.1302C24.3333 11.5657 23.5994 13.2036 21.7603 15.0593L14.051 22.5403Z" stroke="#B0B0B0" stroke-width="2.6763" stroke-linejoin="round"/>
</svg>
