<svg width="88" height="88" viewBox="0 0 88 88" fill="none" xmlns="http://www.w3.org/2000/svg">
<rect width="88" height="88" fill="#12708D"/>
<path d="M16.94 52.59L16.28 51.6L21.92 34.8C21.92 34.7 21.81 34.61 21.59 34.53C21.37 34.43 21.09 34.36 20.75 34.32C20.41 34.28 20.06 34.26 19.7 34.26H19.25V32.7H25.88V34.26H25.73C25.21 34.26 24.8 34.35 24.5 34.53C24.22 34.69 23.98 35.04 23.78 35.58L17.54 54H13.7L7.22 35.13C7.08 34.73 6.86 34.49 6.56 34.41C6.26 34.31 5.87 34.26 5.39 34.26H5.24V32.7H13.67V34.26H13.16C12.84 34.26 12.5 34.27 12.14 34.29C11.78 34.31 11.48 34.34 11.24 34.38C11 34.42 10.88 34.48 10.88 34.56L16.94 52.59ZM31.1016 35.76C30.4616 35.76 29.9316 35.58 29.5116 35.22C29.0916 34.84 28.8816 34.34 28.8816 33.72C28.8816 33.08 29.0916 32.58 29.5116 32.22C29.9316 31.86 30.4616 31.68 31.1016 31.68C31.7616 31.68 32.2916 31.86 32.6916 32.22C33.1116 32.58 33.3216 33.08 33.3216 33.72C33.3216 34.34 33.1116 34.84 32.6916 35.22C32.2916 35.58 31.7616 35.76 31.1016 35.76ZM33.0216 38.7V51.48C33.0216 51.9 33.2216 52.18 33.6216 52.32C34.0416 52.44 34.5616 52.5 35.1816 52.5H35.2416V54H27.2016V52.5H27.2316C27.8716 52.5 28.3916 52.44 28.7916 52.32C29.2116 52.18 29.4216 51.9 29.4216 51.48V41.52C29.4216 41.12 29.2616 40.85 28.9416 40.71C28.6416 40.55 28.1616 40.41 27.5016 40.29L27.1716 40.23V38.7H33.0216ZM47.2196 44.76V46.35C46.3196 46.43 45.5196 46.55 44.8196 46.71C44.1196 46.87 43.5096 47.06 42.9896 47.28C42.4896 47.48 42.0696 47.72 41.7296 48C41.4096 48.28 41.1696 48.61 41.0096 48.99C40.8496 49.35 40.7696 49.74 40.7696 50.16C40.7696 50.64 40.8596 51.06 41.0396 51.42C41.2396 51.76 41.5196 52.02 41.8796 52.2C42.2396 52.38 42.6596 52.47 43.1396 52.47C43.7596 52.47 44.3096 52.32 44.7896 52.02C45.2896 51.7 45.7296 51.26 46.1096 50.7C46.5096 50.14 46.8496 49.48 47.1296 48.72L47.1896 50.76C46.8896 51.48 46.4896 52.11 45.9896 52.65C45.5096 53.17 44.9396 53.58 44.2796 53.88C43.6196 54.16 42.8696 54.3 42.0296 54.3C41.1096 54.3 40.2796 54.14 39.5396 53.82C38.8196 53.5 38.2496 53.04 37.8296 52.44C37.4096 51.82 37.1996 51.09 37.1996 50.25C37.1996 49.43 37.4096 48.72 37.8296 48.12C38.2696 47.5 38.9096 46.98 39.7496 46.56C40.5896 46.12 41.6296 45.76 42.8696 45.48C44.1096 45.18 45.5596 44.94 47.2196 44.76ZM46.7696 54V50.88L46.4396 50.85V43.29C46.4396 42.53 46.3296 41.93 46.1096 41.49C45.9096 41.03 45.6096 40.71 45.2096 40.53C44.8096 40.35 44.3096 40.26 43.7096 40.26C42.8096 40.26 42.0696 40.45 41.4896 40.83C40.9096 41.19 40.4596 41.63 40.1396 42.15C40.0596 41.91 40.0296 41.69 40.0496 41.49C40.0896 41.29 40.1596 41.11 40.2596 40.95C40.3796 40.79 40.5296 40.65 40.7096 40.53C40.8896 40.41 41.0996 40.32 41.3396 40.26V43.38H38.1896V40.26C38.4696 40.02 38.8796 39.76 39.4196 39.48C39.9596 39.18 40.6196 38.93 41.3996 38.73C42.1796 38.51 43.0596 38.4 44.0396 38.4C44.8596 38.4 45.6196 38.49 46.3196 38.67C47.0396 38.85 47.6696 39.14 48.2096 39.54C48.7696 39.92 49.1996 40.43 49.4996 41.07C49.8196 41.69 49.9796 42.45 49.9796 43.35V51.45C49.9796 51.71 50.0696 51.92 50.2496 52.08C50.4496 52.22 50.6996 52.32 50.9996 52.38C51.3196 52.44 51.6896 52.47 52.1096 52.47L52.1696 52.5V54H46.7696ZM64.5795 38.55V41.88C64.4395 41.82 64.2695 41.78 64.0695 41.76C63.8895 41.72 63.6895 41.69 63.4695 41.67C63.2695 41.65 63.0695 41.64 62.8695 41.64C62.3695 41.64 61.9195 41.71 61.5195 41.85C61.1195 41.97 60.7595 42.16 60.4395 42.42C60.1395 42.68 59.8595 43.02 59.5995 43.44C59.3395 43.84 59.0695 44.33 58.7895 44.91V43.05C59.0895 42.15 59.4495 41.36 59.8695 40.68C60.2895 39.98 60.7995 39.43 61.3995 39.03C62.0195 38.63 62.7295 38.43 63.5295 38.43C63.7495 38.43 63.9495 38.44 64.1295 38.46C64.3295 38.48 64.4795 38.51 64.5795 38.55ZM53.5095 54V52.5H53.5695C54.1895 52.5 54.6995 52.44 55.0995 52.32C55.5195 52.18 55.7295 51.9 55.7295 51.48V41.52C55.7295 41.26 55.6595 41.06 55.5195 40.92C55.3795 40.78 55.1695 40.67 54.8895 40.59C54.6095 40.49 54.2495 40.39 53.8095 40.29L53.5095 40.23V38.7H59.0295V43.26L59.3295 42.96V51.66C59.3295 51.92 59.4595 52.11 59.7195 52.23C59.9795 52.35 60.2895 52.43 60.6495 52.47C61.0095 52.49 61.3295 52.5 61.6095 52.5H62.0295V54H53.5095ZM69.89 46.44C69.89 47.4 70 48.25 70.22 48.99C70.44 49.73 70.76 50.36 71.18 50.88C71.6 51.38 72.1 51.76 72.68 52.02C73.26 52.28 73.91 52.41 74.63 52.41C75.41 52.41 76.08 52.26 76.64 51.96C77.22 51.64 77.71 51.26 78.11 50.82C78.51 50.36 78.85 49.89 79.13 49.41L80.66 50.67C80.28 51.35 79.8 51.97 79.22 52.53C78.64 53.09 77.94 53.53 77.12 53.85C76.32 54.15 75.38 54.3 74.3 54.3C72.74 54.3 71.35 53.98 70.13 53.34C68.91 52.7 67.95 51.79 67.25 50.61C66.57 49.41 66.23 48.01 66.23 46.41C66.23 44.81 66.56 43.42 67.22 42.24C67.88 41.04 68.78 40.1 69.92 39.42C71.06 38.74 72.34 38.4 73.76 38.4C74.9 38.4 75.9 38.58 76.76 38.94C77.64 39.3 78.38 39.84 78.98 40.56C79.58 41.28 80.03 42.18 80.33 43.26C80.65 44.34 80.81 45.6 80.81 47.04H69.26V45.24H77.99L77.21 45.96C77.19 44.96 77.11 44.1 76.97 43.38C76.83 42.66 76.62 42.07 76.34 41.61C76.06 41.15 75.71 40.81 75.29 40.59C74.87 40.37 74.37 40.26 73.79 40.26C73.25 40.26 72.74 40.4 72.26 40.68C71.78 40.94 71.36 41.34 71 41.88C70.64 42.4 70.36 43.04 70.16 43.8C69.98 44.56 69.89 45.44 69.89 46.44Z" fill="white"/>
</svg>
