<svg width="28" height="28" viewBox="0 0 28 28" fill="none" xmlns="http://www.w3.org/2000/svg">
<path d="M21 10C22.6569 10 24 8.65685 24 7C24 5.34315 22.6569 4 21 4C19.3431 4 18 5.34315 18 7C18 8.65685 19.3431 10 21 10Z" stroke="#828282" stroke-width="2" stroke-miterlimit="10"/>
<path d="M21 24C22.6569 24 24 22.6569 24 21C24 19.3431 22.6569 18 21 18C19.3431 18 18 19.3431 18 21C18 22.6569 19.3431 24 21 24Z" stroke="#828282" stroke-width="2" stroke-miterlimit="10"/>
<path d="M10 13L18 9" stroke="#828282" stroke-width="2" stroke-miterlimit="10"/>
<path d="M18 19L10 15" stroke="#828282" stroke-width="2" stroke-miterlimit="10"/>
<path d="M7 17C8.65685 17 10 15.6569 10 14C10 12.3431 8.65685 11 7 11C5.34315 11 4 12.3431 4 14C4 15.6569 5.34315 17 7 17Z" stroke="#828282" stroke-width="2" stroke-miterlimit="10"/>
</svg>
