<svg width="104" height="20" viewBox="0 0 104 20" fill="none" xmlns="http://www.w3.org/2000/svg">
<path d="M10 0L12.9389 5.95492L19.5106 6.90983L14.7553 11.5451L15.8779 18.0902L10 15L4.12215 18.0902L5.24472 11.5451L0.489435 6.90983L7.06107 5.95492L10 0Z" fill="#12708D"/>
<path d="M31 0L33.9389 5.95492L40.5106 6.90983L35.7553 11.5451L36.8779 18.0902L31 15L25.1221 18.0902L26.2447 11.5451L21.4894 6.90983L28.0611 5.95492L31 0Z" fill="#12708D"/>
<path d="M52 0L54.9389 5.95492L61.5106 6.90983L56.7553 11.5451L57.8779 18.0902L52 15L46.1221 18.0902L47.2447 11.5451L42.4894 6.90983L49.0611 5.95492L52 0Z" fill="#12708D"/>
<path d="M73 0L75.9389 5.95492L82.5106 6.90983L77.7553 11.5451L78.8779 18.0902L73 15L67.1221 18.0902L68.2447 11.5451L63.4894 6.90983L70.0611 5.95492L73 0Z" fill="#12708D"/>
<path d="M94 2.25955L96.0422 6.39748L96.2749 6.86892L96.7951 6.94452L101.362 7.60807L98.0573 10.829L97.6808 11.196L97.7697 11.7141L98.5497 16.2622L94.4653 14.1149L94 13.8702L93.5347 14.1149L89.4503 16.2622L90.2303 11.7141L90.3192 11.196L89.9427 10.829L86.6384 7.60807L91.2049 6.94452L91.7251 6.86892L91.9578 6.39748L94 2.25955Z" fill="white" stroke="#12708D" stroke-width="2"/>
</svg>
