<svg width="79" height="15" viewBox="0 0 79 15" fill="none" xmlns="http://www.w3.org/2000/svg">
<path d="M7.5 0L9.7042 4.46619L14.6329 5.18237L11.0665 8.65881L11.9084 13.5676L7.5 11.25L3.09161 13.5676L3.93354 8.65881L0.367076 5.18237L5.2958 4.46619L7.5 0Z" fill="#12708D"/>
<path d="M23.5 0L25.7042 4.46619L30.6329 5.18237L27.0665 8.65881L27.9084 13.5676L23.5 11.25L19.0916 13.5676L19.9335 8.65881L16.3671 5.18237L21.2958 4.46619L23.5 0Z" fill="#12708D"/>
<path d="M39.5 0L41.7042 4.46619L46.6329 5.18237L43.0665 8.65881L43.9084 13.5676L39.5 11.25L35.0916 13.5676L35.9335 8.65881L32.3671 5.18237L37.2958 4.46619L39.5 0Z" fill="#12708D"/>
<path d="M55.5 0L57.7042 4.46619L62.6329 5.18237L59.0665 8.65881L59.9084 13.5676L55.5 11.25L51.0916 13.5676L51.9335 8.65881L48.3671 5.18237L53.2958 4.46619L55.5 0Z" fill="#12708D"/>
<path d="M71.5 2.25955L72.8075 4.90875L73.0401 5.38019L73.5604 5.45579L76.484 5.88061L74.3685 7.94273L73.992 8.30969L74.0809 8.82786L74.5803 11.7396L71.9653 10.3649L71.5 10.1202L71.0347 10.3649L68.4197 11.7396L68.9191 8.82786L69.008 8.30969L68.6315 7.94273L66.516 5.88061L69.4396 5.45579L69.9599 5.38019L70.1925 4.90875L71.5 2.25955Z" fill="white" stroke="#12708D" stroke-width="2"/>
</svg>
