<svg width="11" height="14" viewBox="0 0 11 14" fill="none" xmlns="http://www.w3.org/2000/svg">
<path fill-rule="evenodd" clip-rule="evenodd" d="M5.63652 1H4.54559C3.99331 1 3.54559 1.44772 3.54559 2V5.63639C3.54559 6.18867 3.99331 6.63639 4.54559 6.63639H5.63652C6.1888 6.63639 6.63652 6.18867 6.63652 5.63639V2C6.63652 1.44772 6.1888 1 5.63652 1ZM4.54559 0C3.44102 0 2.54559 0.895432 2.54559 2V5.63639C2.54559 6.74096 3.44102 7.63639 4.54559 7.63639H5.63652C6.74109 7.63639 7.63652 6.74096 7.63652 5.63639V2C7.63652 0.89543 6.74109 0 5.63652 0H4.54559Z" fill="#12708D"/>
<path fill-rule="evenodd" clip-rule="evenodd" d="M1 3.81812C0.447715 3.81812 0 4.26583 0 4.81811V13C0 13.5523 0.447715 14 1 14H9.18185C9.73414 14 10.1819 13.5523 10.1819 13V4.81812C10.1819 4.26583 9.73414 3.81812 9.18185 3.81812H1ZM5.09088 10.1815C5.79379 10.1815 6.36362 9.6117 6.36362 8.90879C6.36362 8.20588 5.79379 7.63606 5.09088 7.63606C4.38797 7.63606 3.81815 8.20588 3.81815 8.90879C3.81815 9.6117 4.38797 10.1815 5.09088 10.1815Z" fill="#12708D"/>
</svg>
