<svg width="24" height="24" viewBox="0 0 24 24" fill="none" xmlns="http://www.w3.org/2000/svg">
<path d="M15.914 8C15.914 9.06087 15.5016 10.0783 14.7676 10.8284C14.0336 11.5786 13.038 12 12 12C10.962 12 9.96642 11.5786 9.23241 10.8284C8.4984 10.0783 8.08603 9.06087 8.08603 8M3.81317 7.40138L3.12823 15.8014C2.98109 17.6059 2.90752 18.5082 3.20599 19.2042C3.46822 19.8157 3.92258 20.3204 4.49711 20.6382C5.15102 21 6.03694 21 7.80877 21H16.1912C17.9631 21 18.849 21 19.5029 20.6382C20.0774 20.3204 20.5318 19.8157 20.794 19.2042C21.0925 18.5082 21.0189 17.6059 20.8718 15.8014L20.1868 7.40138C20.0602 5.84875 19.9969 5.07243 19.6605 4.48486C19.3642 3.96744 18.9231 3.5526 18.3939 3.29385C17.793 3 17.0308 3 15.5063 3L8.49371 3C6.96921 3 6.20695 3 5.60606 3.29384C5.07692 3.5526 4.63577 3.96744 4.33951 4.48486C4.00308 5.07243 3.93978 5.84875 3.81317 7.40138Z" stroke="#111111" stroke-width="2" stroke-linecap="round" stroke-linejoin="round"/>
</svg>
