<svg width="20" height="20" viewBox="0 0 20 20" fill="none" xmlns="http://www.w3.org/2000/svg">
<g clip-path="url(#clip0_30_69)">
<path d="M9.68444 17.0236L3.90684 11.4075C3.88465 11.3859 3.86148 11.3654 3.83739 11.346C3.82286 11.3342 3.76897 11.2862 3.6629 11.1762C3.58691 11.0975 3.4342 10.9186 3.18853 10.6091C2.96961 10.3334 2.77555 10.0527 2.6055 9.76717C2.45799 9.51946 2.31289 9.19625 2.17782 8.78508C2.05528 8.41206 2 8.06822 2 7.74951C2 6.51584 2.34708 5.67864 2.93221 5.103C3.52061 4.52415 4.37688 4.1792 5.63287 4.1792C5.91522 4.1792 6.21645 4.22827 6.54055 4.33712C6.8765 4.44995 7.18528 4.60075 7.46962 4.78916C7.80945 5.01434 8.09162 5.21895 8.32004 5.40307C8.5499 5.58836 8.76798 5.78498 8.97444 5.99301C9.16219 6.18218 9.41769 6.28857 9.68421 6.28857C9.95074 6.28857 10.2062 6.18218 10.394 5.99301C10.6004 5.78498 10.8185 5.58836 11.0484 5.40307C11.2768 5.21895 11.559 5.01434 11.8988 4.78916C12.1831 4.60075 12.4919 4.44995 12.8279 4.33712C13.152 4.22827 13.4532 4.1792 13.7356 4.1792C14.9915 4.1792 15.8478 4.52415 16.4362 5.103C17.0213 5.67864 17.3684 6.51584 17.3684 7.74951C17.3684 8.8223 16.8199 10.0462 15.4456 11.4331L9.68444 17.0236Z" stroke="#12708D" stroke-width="2" stroke-linejoin="round"/>
</g>
<defs>
<clipPath id="clip0_30_69">
<rect width="20" height="20" fill="white"/>
</clipPath>
</defs>
</svg>
