<svg width="27" height="27" viewBox="0 0 27 27" fill="none" xmlns="http://www.w3.org/2000/svg">
<path d="M14.0507 24.0867C13.8259 24.0867 13.6357 24.0083 13.48 23.8514L5.38701 15.9846C5.30054 15.9149 5.18165 15.8016 5.03034 15.6448C4.87903 15.488 4.63909 15.2027 4.31053 14.7889C3.98196 14.3751 3.68798 13.9503 3.42859 13.5147C3.1692 13.0792 2.93791 12.5521 2.73472 11.9335C2.53153 11.315 2.42993 10.7139 2.42993 10.1302C2.42993 8.21355 2.97898 6.7151 4.07707 5.63482C5.17517 4.55454 6.69261 4.0144 8.62941 4.0144C9.16549 4.0144 9.71237 4.10806 10.2701 4.29536C10.8278 4.48267 11.3465 4.73532 11.8264 5.0533C12.3063 5.37129 12.7192 5.66967 13.065 5.94845C13.4109 6.22723 13.7394 6.52344 14.0507 6.83707C14.362 6.52344 14.6905 6.22723 15.0364 5.94845C15.3823 5.66967 15.7951 5.37129 16.275 5.0533C16.7549 4.73532 17.2737 4.48267 17.8314 4.29536C18.389 4.10806 18.9359 4.0144 19.472 4.0144C21.4088 4.0144 22.9263 4.55454 24.0243 5.63482C25.1224 6.7151 25.6715 8.21355 25.6715 10.1302C25.6715 12.0555 24.6815 14.0157 22.7014 16.0107L14.6214 23.8514C14.4657 24.0083 14.2755 24.0867 14.0507 24.0867Z" fill="#12708D"/>
</svg>
