<svg width="24" height="24" viewBox="0 0 24 24" fill="none" xmlns="http://www.w3.org/2000/svg">
<path d="M12.0001 20.908L4.49612 13.6137C4.47394 13.5921 4.45076 13.5716 4.42668 13.5522C4.39492 13.5266 4.31733 13.4559 4.18111 13.3147C4.07496 13.2047 3.87444 12.969 3.5633 12.5771C3.2789 12.2189 3.02625 11.8536 2.80451 11.4812C2.60531 11.1467 2.41412 10.7184 2.23856 10.184C2.07553 9.68772 2 9.22409 2 8.78906C2 7.17344 2.4565 6.03763 3.26045 5.24672C4.06768 4.45259 5.22635 4 6.8683 4C7.25748 4 7.6677 4.06773 8.10294 4.21391C8.55002 4.36407 8.96218 4.56521 9.34216 4.81699C9.77761 5.10554 10.1421 5.36962 10.4394 5.60929C10.7382 5.85013 11.0217 6.10578 11.2902 6.37631C11.478 6.56548 11.7335 6.67187 12 6.67187C12.2665 6.67187 12.522 6.56548 12.7098 6.37631C12.9783 6.10578 13.2618 5.85013 13.5606 5.60929C13.8579 5.36962 14.2224 5.10554 14.6578 4.81699C15.0378 4.56521 15.45 4.36407 15.8971 4.21391C16.3323 4.06773 16.7425 4 17.1317 4C18.7736 4 19.9323 4.45259 20.7395 5.24672C21.5435 6.03763 22 7.17344 22 8.78906C22 10.2454 21.2543 11.86 19.4854 13.6445L12.0001 20.908Z" stroke="white" stroke-width="2" stroke-linejoin="round"/>
</svg>
